<svg width="24" height="24" viewBox="0 0 24 24" fill="none" xmlns="http://www.w3.org/2000/svg">
<path d="M14.5 10.4142L22.5208 2.3934C22.8976 2.0166 23.5304 2.0166 23.9072 2.3934C24.284 2.7702 24.284 3.403 23.9072 3.7798L15.8864 11.8L14.5 10.4142Z" fill="hsl(262.1 83.3% 57.8%)"/>
<path d="M13.0858 11.8L3.7798 2.494C3.403 2.1172 2.7702 2.1172 2.3934 2.494C2.0166 2.8708 2.0166 3.5036 2.3934 3.8804L11.7 13.1864L13.0858 11.8Z" fill="hsl(262.1 83.3% 57.8%)"/>
<path d="M12.3934 21.506C12.7702 21.8828 13.403 21.8828 13.7798 21.506L23.9072 11.3786C24.284 11.0018 24.284 10.369 23.9072 9.9922L13.7798 -0.1352C13.403 -0.512 12.7702 -0.512 12.3934 -0.1352L2.3934 9.8648C2.0166 10.2416 2.0166 10.8744 2.3934 11.2512L12.3934 21.506Z" fill="hsl(262.1 83.3% 57.8%)" fill-opacity="0.5"/>
</svg>
